<svg width="13" height="14" viewBox="0 0 13 14" fill="none" xmlns="http://www.w3.org/2000/svg">
<path d="M5.30156 2.10156H7.70156C7.70156 1.7833 7.57513 1.47808 7.35009 1.25303C7.12505 1.02799 6.81982 0.901563 6.50156 0.901563C6.1833 0.901563 5.87808 1.02799 5.65303 1.25303C5.42799 1.47808 5.30156 1.7833 5.30156 2.10156ZM4.50156 2.10156C4.50156 1.57113 4.71228 1.06242 5.08735 0.687349C5.46242 0.312276 5.97113 0.101563 6.50156 0.101562C7.032 0.101562 7.5407 0.312276 7.91578 0.687349C8.29085 1.06242 8.50156 1.57113 8.50156 2.10156H12.5016C12.6076 2.10156 12.7094 2.14371 12.7844 2.21872C12.8594 2.29373 12.9016 2.39548 12.9016 2.50156C12.9016 2.60765 12.8594 2.70939 12.7844 2.78441C12.7094 2.85942 12.6076 2.90156 12.5016 2.90156H11.6584L10.7032 11.1768C10.6356 11.7617 10.3554 12.3014 9.91585 12.6932C9.47627 13.085 8.908 13.3015 8.31916 13.3016H4.68396C4.09513 13.3015 3.52685 13.085 3.08727 12.6932C2.64769 12.3014 2.36748 11.7617 2.29996 11.1768L1.34476 2.90156H0.501563C0.395476 2.90156 0.293734 2.85942 0.21872 2.78441C0.143705 2.70939 0.101562 2.60765 0.101562 2.50156C0.101562 2.39548 0.143705 2.29373 0.21872 2.21872C0.293734 2.14371 0.395476 2.10156 0.501563 2.10156H4.50156ZM3.09436 11.0856C3.1395 11.4755 3.3264 11.8352 3.6195 12.0963C3.91259 12.3574 4.29144 12.5016 4.68396 12.5016H8.31916C8.71169 12.5016 9.09053 12.3574 9.38363 12.0963C9.67673 11.8352 9.86362 11.4755 9.90876 11.0856L10.8528 2.90156H2.15036L3.09436 11.0856ZM5.30156 4.90156C5.40765 4.90156 5.50939 4.94371 5.58441 5.01872C5.65942 5.09373 5.70156 5.19548 5.70156 5.30156V10.1016C5.70156 10.2076 5.65942 10.3094 5.58441 10.3844C5.50939 10.4594 5.40765 10.5016 5.30156 10.5016C5.19548 10.5016 5.09373 10.4594 5.01872 10.3844C4.94371 10.3094 4.90156 10.2076 4.90156 10.1016V5.30156C4.90156 5.19548 4.94371 5.09373 5.01872 5.01872C5.09373 4.94371 5.19548 4.90156 5.30156 4.90156ZM8.10156 5.30156C8.10156 5.19548 8.05942 5.09373 7.98441 5.01872C7.90939 4.94371 7.80765 4.90156 7.70156 4.90156C7.59548 4.90156 7.49373 4.94371 7.41872 5.01872C7.34371 5.09373 7.30156 5.19548 7.30156 5.30156V10.1016C7.30156 10.2076 7.34371 10.3094 7.41872 10.3844C7.49373 10.4594 7.59548 10.5016 7.70156 10.5016C7.80765 10.5016 7.90939 10.4594 7.98441 10.3844C8.05942 10.3094 8.10156 10.2076 8.10156 10.1016V5.30156Z" fill="#1F1F1F" stroke="#1F1F1F" stroke-width="0.2"/>
</svg>
