<svg width="11" height="15" viewBox="0 0 11 15" fill="none" xmlns="http://www.w3.org/2000/svg">
<path d="M0.5 13.8333V8.5M0.5 8.5V1.83333M0.5 8.5L2.14667 8.17067C3.24722 7.95136 4.38775 8.05604 5.43 8.472C6.55909 8.92335 7.80167 9.00756 8.98133 8.71267L9.124 8.67733C9.32657 8.62677 9.50641 8.50994 9.63494 8.34541C9.76347 8.18089 9.8333 7.97811 9.83333 7.76933V2.858C9.83329 2.73651 9.80558 2.61663 9.7523 2.50744C9.69902 2.39826 9.62157 2.30265 9.52583 2.22785C9.43009 2.15306 9.31858 2.10106 9.19975 2.07579C9.08091 2.05052 8.95789 2.05264 8.84 2.082C7.75239 2.35371 6.60681 2.2758 5.566 1.85933L5.43 1.80533C4.38795 1.3895 3.24767 1.28483 2.14733 1.504L0.5 1.83333M0.5 1.83333V0.5" stroke="#1F1F1F" stroke-linecap="round"/>
</svg>
