<svg width="24" height="24" viewBox="0 0 24 24" fill="none" xmlns="http://www.w3.org/2000/svg">
<path d="M8.89219 14.6641C8.89219 14.6641 5.78125 16.9555 5.78125 17.775C5.78125 18.5945 8.89219 20.886 8.89219 20.886" stroke="#1F1F1F" stroke-width="1.5" stroke-linecap="round" stroke-linejoin="round"/>
<path d="M6.22656 17.7753H13.3373C16.2598 17.7753 17.7202 17.7753 18.7041 16.9682C18.8843 16.82 19.0484 16.6559 19.1965 16.4758C20.0036 15.4909 20.0036 14.0315 20.0036 11.1089M15.115 9.33126C15.115 9.33126 18.2259 7.03983 18.2259 6.22032C18.2259 5.40081 15.115 3.10938 15.115 3.10938" stroke="#1F1F1F" stroke-width="1.5" stroke-linecap="round" stroke-linejoin="round"/>
<path d="M17.777 6.21875H10.6663C7.74469 6.21875 6.28343 6.21875 5.29949 7.02582C5.11963 7.17345 4.9547 7.33838 4.80707 7.51824C4 8.50307 4 9.96255 4 12.8851" stroke="#1F1F1F" stroke-width="1.5" stroke-linecap="round" stroke-linejoin="round"/>
</svg>
