<svg width="13" height="14" viewBox="0 0 13 14" fill="none" xmlns="http://www.w3.org/2000/svg">
<path fill-rule="evenodd" clip-rule="evenodd" d="M8.10446 4.81316e-08H5.52629C4.35797 4.81316e-08 3.43248 4.73592e-08 2.70848 0.0972535C1.9635 0.197685 1.36028 0.408719 0.884181 0.884181C0.408719 1.36028 0.197685 1.9635 0.0972536 2.70848C1.23134e-07 3.43311 4.81316e-08 4.35797 4.81316e-08 5.52629V9.37575C-0.000114028 9.94368 0.202554 10.493 0.571506 10.9248C0.940457 11.3565 1.45145 11.6424 2.01245 11.7308C2.09953 12.2164 2.26798 12.6309 2.60487 12.9684C2.98753 13.3511 3.46934 13.5151 4.04142 13.5926C4.59253 13.6663 5.29364 13.6663 6.16257 13.6663H8.13942C9.00834 13.6663 9.70946 13.6663 10.2606 13.5926C10.8326 13.5151 11.3145 13.3511 11.6971 12.9684C12.0798 12.5857 12.2438 12.1039 12.3213 11.5318C12.3951 10.9807 12.3951 10.2796 12.3951 9.41071V6.16257C12.3951 5.29364 12.3951 4.59253 12.3213 4.04142C12.2438 3.46934 12.0798 2.98753 11.6971 2.60487C11.3596 2.26798 10.9452 2.09953 10.4595 2.01245C10.3711 1.45145 10.0852 0.940457 9.65346 0.571506C9.2217 0.202554 8.67239 -0.000114028 8.10446 4.81316e-08ZM9.45838 1.92028C9.36172 1.63805 9.17924 1.39311 8.93646 1.21975C8.69369 1.04639 8.40278 0.953284 8.10446 0.953466H5.56188C4.34971 0.953466 3.48905 0.954737 2.83497 1.04246C2.19615 1.12827 1.82748 1.28972 1.5586 1.5586C1.28972 1.82748 1.12827 2.19615 1.04246 2.83497C0.954737 3.48905 0.953466 4.34971 0.953466 5.56188V9.37575C0.953284 9.67406 1.04639 9.96497 1.21975 10.2077C1.39311 10.4505 1.63805 10.633 1.92028 10.7297C1.90693 10.3419 1.90693 9.90333 1.90693 9.41071V6.16257C1.90693 5.29364 1.90693 4.59253 1.9813 4.04142C2.05758 3.46934 2.22285 2.98753 2.60487 2.60487C2.98753 2.22221 3.46934 2.05821 4.04142 1.9813C4.59253 1.90693 5.29364 1.90693 6.16257 1.90693H8.13942C8.63204 1.90693 9.07064 1.90693 9.45838 1.92028ZM3.27865 3.27992C3.45472 3.10385 3.70135 2.98943 4.16855 2.9265C4.64783 2.8623 5.28474 2.86103 6.19689 2.86103H8.10382C9.01597 2.86103 9.65225 2.8623 10.1328 2.9265C10.5994 2.98943 10.846 3.10448 11.0221 3.27992C11.1981 3.456 11.3126 3.70263 11.3755 4.16982C11.4397 4.6491 11.441 5.28601 11.441 6.19816V9.37638C11.441 10.2885 11.4397 10.9248 11.3755 11.4054C11.3126 11.8719 11.1975 12.1185 11.0221 12.2946C10.846 12.4707 10.5994 12.5851 10.1322 12.648C9.65225 12.7122 9.01597 12.7135 8.10382 12.7135H6.19689C5.28474 12.7135 4.64783 12.7122 4.16792 12.648C3.70135 12.5851 3.45472 12.4701 3.27865 12.2946C3.10258 12.1185 2.98816 11.8719 2.92523 11.4047C2.86103 10.9248 2.85976 10.2885 2.85976 9.37638V6.19816C2.85976 5.28601 2.86103 4.6491 2.92523 4.16919C2.98816 3.70263 3.10321 3.456 3.27865 3.27992Z" fill="#1F1F1F"/>
</svg>
