<svg width="48" height="96" viewBox="0 0 48 96" fill="none" xmlns="http://www.w3.org/2000/svg">
<path d="M46.3227 90.1198C46.3233 91.1499 45.9584 92.1468 45.293 92.933C44.6275 93.7193 43.7047 94.244 42.6886 94.4136C30.1825 96.5236 17.4113 96.5236 4.90514 94.4136C3.8934 94.2395 2.97598 93.7127 2.31552 92.9268C1.65505 92.1408 1.29419 91.1464 1.29689 90.1198V48.3672H46.3433L46.3227 90.1198Z" fill="#6C74F5"/>
<path opacity="0.3" d="M1.26562 49.125V54.9858C3.97697 55.991 12.879 56.7281 23.7914 56.7281C34.7038 56.7281 43.6213 55.991 46.3172 54.9858V49.125H1.26562Z" fill="black"/>
<path d="M47.1701 53.589C47.1701 54.9137 36.9433 55.9859 23.799 55.9859C10.6546 55.9859 0.427844 54.9137 0.427844 53.589L0 48.3828H47.6237L47.1701 53.589Z" fill="#6C74F5"/>
<path d="M23.799 50.7757C36.9428 50.7757 47.598 49.7049 47.598 48.3839C47.598 47.063 36.9428 45.9922 23.799 45.9922C10.6552 45.9922 0 47.063 0 48.3839C0 49.7049 10.6552 50.7757 23.799 50.7757Z" fill="#6C74F5"/>
<path opacity="0.3" d="M23.799 50.7757C36.9428 50.7757 47.598 49.7049 47.598 48.3839C47.598 47.063 36.9428 45.9922 23.799 45.9922C10.6552 45.9922 0 47.063 0 48.3839C0 49.7049 10.6552 50.7757 23.799 50.7757Z" fill="black"/>
<path opacity="0.2" d="M7.30991 87.183C6.84689 87.1816 6.40322 86.9971 6.07581 86.6697C5.7484 86.3423 5.56386 85.8986 5.5625 85.4356V61.4974C5.56386 61.0344 5.7484 60.5907 6.07581 60.2633C6.40322 59.9359 6.84689 59.7514 7.30991 59.75C7.77253 59.7527 8.21542 59.9377 8.54254 60.2648C8.86966 60.5919 9.05464 61.0348 9.05735 61.4974V85.4356C9.05464 85.8982 8.86966 86.3411 8.54254 86.6682C8.21542 86.9953 7.77253 87.1803 7.30991 87.183Z" fill="black"/>
<path opacity="0.2" d="M40.2904 87.183C39.8274 87.1816 39.3837 86.9971 39.0563 86.6697C38.7289 86.3423 38.5443 85.8986 38.543 85.4356V61.4974C38.5443 61.0344 38.7289 60.5907 39.0563 60.2633C39.3837 59.9359 39.8274 59.7514 40.2904 59.75C40.753 59.7527 41.1959 59.9377 41.523 60.2648C41.8501 60.5919 42.0351 61.0348 42.0378 61.4974V85.4356C42.0351 85.8982 41.8501 86.3411 41.523 86.6682C41.1959 86.9953 40.753 87.1803 40.2904 87.183Z" fill="black"/>
<path opacity="0.2" d="M29.2904 87.183C28.8278 87.1803 28.3849 86.9953 28.0578 86.6682C27.7307 86.3411 27.5457 85.8982 27.543 85.4356V61.4974C27.5457 61.0348 27.7307 60.5919 28.0578 60.2648C28.3849 59.9377 28.8278 59.7527 29.2904 59.75C29.7534 59.7514 30.1971 59.9359 30.5245 60.2633C30.8519 60.5907 31.0365 61.0344 31.0378 61.4974V85.4356C31.0365 85.8986 30.8519 86.3423 30.5245 86.6697C30.1971 86.9971 29.7534 87.1816 29.2904 87.183Z" fill="black"/>
<path opacity="0.2" d="M18.2982 87.183C17.8356 87.1803 17.3927 86.9953 17.0656 86.6682C16.7384 86.3411 16.5535 85.8982 16.5508 85.4356V61.4974C16.5535 61.0348 16.7384 60.5919 17.0656 60.2648C17.3927 59.9377 17.8356 59.7527 18.2982 59.75C18.7612 59.7514 19.2049 59.9359 19.5323 60.2633C19.8597 60.5907 20.0443 61.0344 20.0456 61.4974V85.4356C20.0443 85.8986 19.8597 86.3423 19.5323 86.6697C19.2049 86.9971 18.7612 87.1816 18.2982 87.183Z" fill="black"/>
<path d="M25.3513 16.1378L19.2688 22.6945C19.0287 22.9501 18.6974 23.1005 18.347 23.1131C17.9966 23.1256 17.6554 22.9993 17.3977 22.7615L2.48013 8.86974C2.22331 8.63039 2.07201 8.29889 2.05944 7.94805C2.04688 7.59721 2.17408 7.25573 2.41312 6.99861L8.51622 0.441911C8.63445 0.313372 8.777 0.209577 8.93564 0.136546C9.09427 0.0635158 9.26583 0.022699 9.44036 0.0164658C9.61489 0.0102327 9.78892 0.0387043 9.95236 0.100232C10.1158 0.161759 10.2654 0.25512 10.3925 0.374898L25.3049 14.2667C25.4982 14.4465 25.6334 14.6799 25.6931 14.9371C25.7528 15.1942 25.7342 15.4634 25.6399 15.71C25.5754 15.8716 25.477 16.0175 25.3513 16.1378Z" fill="#6C74F5"/>
<path opacity="0.3" d="M25.6188 15.7363L12.0518 13.525L8.90234 0.122905C9.14275 0.012182 9.41056 -0.0248801 9.672 0.0164003C9.93344 0.0576808 10.1768 0.175454 10.3714 0.354862L25.2838 14.2466C25.4865 14.43 25.6275 14.6716 25.6875 14.9383C25.7475 15.205 25.7235 15.4838 25.6188 15.7363Z" fill="black"/>
<path d="M25.6188 15.7368L12.4075 11.7986L8.90234 0.16978C9.14275 0.059057 9.41056 0.0219949 9.672 0.0632753C9.93344 0.104556 10.1768 0.222329 10.3714 0.401737L25.2838 14.2935C25.4771 14.4733 25.6123 14.7068 25.672 14.9639C25.7317 15.2211 25.7132 15.4902 25.6188 15.7368Z" fill="#6C74F5"/>
<path opacity="0.2" d="M25.6188 15.7368L12.4075 11.7986L8.90234 0.16978C9.14275 0.059057 9.41056 0.0219949 9.672 0.0632753C9.93344 0.104556 10.1768 0.222329 10.3714 0.401737L25.2838 14.2935C25.4771 14.4733 25.6123 14.7068 25.672 14.9639C25.7317 15.2211 25.7132 15.4902 25.6188 15.7368Z" fill="white"/>
<path d="M30.6488 26.94L37.3499 34.7648C37.4779 34.9144 37.5741 35.0887 37.6325 35.2768C37.6909 35.4649 37.7103 35.663 37.6896 35.8589C37.6688 36.0547 37.6083 36.2443 37.5118 36.4161C37.4153 36.5878 37.2848 36.738 37.1282 36.8575L22.5715 48.1977C22.3269 48.345 22.0362 48.396 21.7561 48.3408C21.4759 48.2855 21.2264 48.1279 21.056 47.8988L15.8138 41.9194C15.7152 41.8044 15.6337 41.676 15.5715 41.5379C15.4742 41.3483 15.4336 41.1346 15.4546 40.9225C15.4757 40.7104 15.5574 40.5089 15.6901 40.3421L28.5767 26.8833C28.7779 26.6654 29.0437 26.5178 29.335 26.4621C29.6263 26.4065 29.9278 26.4457 30.1952 26.574C30.3682 26.6662 30.5222 26.7904 30.6488 26.94Z" fill="#6C74F5"/>
<path opacity="0.3" d="M30.202 26.5907L27.0009 40.8278L15.5989 41.5546C15.5015 41.365 15.4609 41.1513 15.482 40.9392C15.503 40.7271 15.5847 40.5256 15.7174 40.3587L28.604 26.9C28.8038 26.6866 29.0659 26.5417 29.3528 26.4862C29.6398 26.4307 29.937 26.4672 30.202 26.5907Z" fill="black"/>
<path d="M30.2005 26.5862L24.8346 41.6945L15.5871 41.5501C15.4898 41.3605 15.4492 41.1469 15.4703 40.9347C15.4913 40.7226 15.573 40.5211 15.7057 40.3543L28.5923 26.8955C28.7928 26.6799 29.0567 26.5337 29.3459 26.4781C29.635 26.4225 29.9344 26.4603 30.2005 26.5862Z" fill="#6C74F5"/>
<path opacity="0.2" d="M30.2005 26.5862L24.8346 41.6945L15.5871 41.5501C15.4898 41.3605 15.4492 41.1469 15.4703 40.9347C15.4913 40.7226 15.573 40.5211 15.7057 40.3543L28.5923 26.8955C28.7928 26.6799 29.0567 26.5337 29.3459 26.4781C29.635 26.4225 29.9344 26.4603 30.2005 26.5862Z" fill="white"/>
</svg>
