<svg width="12" height="12" viewBox="0 0 12 12" fill="none" xmlns="http://www.w3.org/2000/svg">
<path d="M11.3417 0.658279C11.1332 0.449592 10.8857 0.284041 10.6132 0.171089C10.3406 0.0581376 10.0485 0 9.75356 0C9.45857 0 9.16648 0.0581376 8.89397 0.171089C8.62146 0.284041 8.37389 0.449592 8.1654 0.658279L1.42033 7.40335C1.10015 7.72403 0.871737 8.12465 0.758847 8.56352L0.0133927 11.4648C-0.00509343 11.537 -0.00443154 11.6127 0.015313 11.6846C0.0350576 11.7564 0.073202 11.8219 0.12598 11.8745C0.178757 11.9271 0.244343 11.965 0.316261 11.9846C0.388179 12.0041 0.463941 12.0045 0.536067 11.9858L3.43648 11.2412C3.87551 11.1287 4.27622 10.9002 4.59665 10.5797L11.3417 3.8346C11.5504 3.62611 11.716 3.37854 11.8289 3.10603C11.9419 2.83352 12 2.54143 12 2.24644C12 1.95145 11.9419 1.65935 11.8289 1.38685C11.716 1.11434 11.5504 0.866768 11.3417 0.658279ZM8.77119 1.26407C9.03173 1.00353 9.3851 0.857156 9.75356 0.857156C10.122 0.857156 10.4754 1.00353 10.7359 1.26407C10.9965 1.52461 11.1428 1.87798 11.1428 2.24644C11.1428 2.6149 10.9965 2.96827 10.7359 3.22881L10.0685 3.89629L8.10371 1.93155L8.77119 1.26407ZM7.49792 2.53734L9.46266 4.50208L3.99086 9.97388C3.77879 10.1858 3.51361 10.3367 3.22313 10.4109L1.02361 10.9764L1.58913 8.77687C1.66288 8.48623 1.81388 8.22095 2.02612 8.00914L7.49792 2.53734Z" fill="#1F1F1F"/>
</svg>
