<svg width="90" height="67" viewBox="0 0 90 67" fill="none" xmlns="http://www.w3.org/2000/svg">
<path d="M21.4156 53.0758C21.4156 53.0758 41.5389 28.5739 53.7028 31.3185C61.2656 33.0234 65.7666 59.6351 65.7666 59.6351H59.576L50.9333 44.3662L37.7227 59.6351L21.4156 53.0758Z" fill="#4A4A89"/>
<path d="M26.9239 29.3074C26.9239 29.3074 27.1897 51.5685 35.6975 49.6172C44.2039 47.666 55.3198 39.0538 55.3198 39.0538L53.9893 36.635C53.9893 36.635 42.1983 44.0377 37.7113 39.3725C35.7629 37.3489 32.9863 29.1821 32.9863 29.1821L26.9239 29.3074Z" fill="#F99C73"/>
<path d="M27.7203 36.1408L35.3986 31.7735C35.3986 31.7735 29.1607 20.3973 25.6744 23.6053C22.1853 26.8133 26.2116 33.0818 27.7203 36.1408Z" fill="#8077CB"/>
<path d="M6.73442 54.7971C6.73442 54.7971 5.43034 65.2325 17.4996 64.5825C17.4996 64.5825 44.8866 62.847 54.0193 63.1295C61.6377 63.3633 84.347 66.2123 84.347 66.2123V60.5075L48.803 53.0588C48.803 53.0588 18.4794 50.8863 6.73442 54.7971Z" fill="#59589E"/>
<path d="M84.3514 60.5075C84.3514 60.5075 86.311 60.2597 87.2894 56.7136C88.2678 53.166 90.2246 53.7394 89.8975 56.7136C89.5705 59.6905 90.5489 67.1893 88.2678 66.2109C85.9783 65.2353 84.3514 66.2109 84.3514 66.2109V60.5075Z" fill="#312E3F"/>
<path d="M19.6374 17.1018C19.6374 17.1018 30.6253 18.8846 29.7457 31.7166C28.8661 44.5485 33.7289 50.2422 28.9287 54.3103C25.3032 57.3805 12.8665 59.5878 6.00517 56.9324C6.00517 56.9324 -11.9554 12.6788 19.6374 17.1018Z" fill="#8077CB"/>
<path d="M12.9489 12.6295L11.3887 19.0663C11.3887 19.0663 13.2537 22.6654 17.6293 18.9076L15.9787 12.2217L12.9489 12.6295Z" fill="#F99C73"/>
<path d="M12.529 2.1944C11.7538 3.36904 10.2214 5.6487 10.5972 7.48024C10.9646 9.31597 11.4281 12.5462 13.1998 13.668C14.9798 14.7939 16.4621 13.3089 16.9353 12.6047C17.6868 11.4648 19.542 4.57985 16.7975 2.24031C14.7224 0.474177 13.1135 1.30646 12.529 2.1944Z" fill="#F99C73"/>
<path d="M22.0806 2.18328C22.0806 2.18328 16.1365 4.84016 14.1059 3.8715C12.0739 2.89866 11.9069 5.06979 11.8582 5.29804C11.8123 5.53463 11.5576 8.62574 10.8047 8.52832C10.0489 8.41837 9.8332 4.45325 11.4449 2.15546C13.0482 -0.146501 21.4766 -1.25018 22.0806 2.18328Z" fill="#171B23"/>
<path d="M3.42776 31.5476C3.42776 31.5476 3.6922 53.8087 12.2014 51.8575C20.7064 49.9063 31.8223 41.2941 31.8223 41.2941L30.4932 38.8752C30.4932 38.8752 18.7023 46.2794 14.2139 41.6128C12.2668 39.5892 9.48885 31.4224 9.48885 31.4224L3.42776 31.5476Z" fill="#F99C73"/>
<path d="M2.76524 37.1165L10.7428 33.3282C10.7428 33.3282 5.36225 21.5219 1.64627 24.4641C-2.06832 27.4035 1.48483 33.9517 2.76524 37.1165Z" fill="#8077CB"/>
<path d="M37.705 53.1355L17.2838 53.5645L17.3248 55.5154L37.7459 55.0865L37.705 53.1355Z" fill="#312E3F"/>
<path d="M69.8437 34.9424L41.4172 35.5394L35.9545 55.1075L64.3658 54.5035L69.8437 34.9424Z" fill="#312E3F"/>
<path d="M51.5077 46.5033C51.5355 47.8798 52.6823 48.9723 54.0574 48.9445C55.4366 48.9152 56.5333 47.7754 56.5054 46.399C56.4776 45.0184 55.3322 43.9258 53.953 43.9536C52.5779 43.9815 51.4771 45.1213 51.5077 46.5033Z" fill="#EAEAEA"/>
</svg>
