<svg width="24" height="24" viewBox="0 0 24 24" fill="none" xmlns="http://www.w3.org/2000/svg">
<path d="M4.59082 20.6055L4.81547 21.242L4.81592 21.2418L4.59082 20.6055ZM3.21289 19.2275L2.57641 19.0028L2.5764 19.0028L3.21289 19.2275ZM3.99055 16.1051L3.39017 16.4136L3.99055 16.1051ZM7.6437 19.8754L7.97106 19.2851L7.6437 19.8754ZM6.86468 19.8011L6.63957 19.1648L6.86468 19.8011ZM12 3V3.675C16.5978 3.675 20.325 7.40223 20.325 12H21H21.675C21.675 6.65665 17.3434 2.325 12 2.325V3ZM21 12H20.325C20.325 16.5978 16.5978 20.325 12 20.325V21V21.675C17.3434 21.675 21.675 17.3434 21.675 12H21ZM12 21V20.325C10.5371 20.325 9.16466 19.9471 7.97106 19.2851L7.6437 19.8754L7.31634 20.4657C8.70449 21.2356 10.3015 21.675 12 21.675V21ZM6.86468 19.8011L6.63957 19.1648L4.36572 19.9691L4.59082 20.6055L4.81592 21.2418L7.08978 20.4375L6.86468 19.8011ZM4.59082 20.6055L4.36617 19.969C4.04511 20.0823 3.73614 19.773 3.84938 19.4523L3.21289 19.2275L2.5764 19.0028C2.08532 20.3936 3.42497 21.7328 4.81547 21.242L4.59082 20.6055ZM3.21289 19.2275L3.84937 19.4523L4.68655 17.0817L4.05007 16.8569L3.4136 16.6321L2.57641 19.0028L3.21289 19.2275ZM3.99055 16.1051L4.59094 15.7967C4.00616 14.6586 3.675 13.369 3.675 12H3H2.325C2.325 13.5893 2.70998 15.0898 3.39017 16.4136L3.99055 16.1051ZM3 12H3.675C3.675 7.40223 7.40223 3.675 12 3.675V3V2.325C6.65665 2.325 2.325 6.65665 2.325 12H3ZM4.05007 16.8569L4.68655 17.0817C4.84102 16.6443 4.78791 16.18 4.59094 15.7967L3.99055 16.1051L3.39017 16.4136C3.43269 16.4964 3.43362 16.5754 3.4136 16.6321L4.05007 16.8569ZM7.6437 19.8754L7.97106 19.2851C7.57882 19.0676 7.09498 19.0037 6.63957 19.1648L6.86468 19.8011L7.08978 20.4375C7.14875 20.4166 7.23143 20.4187 7.31634 20.4657L7.6437 19.8754Z" fill="#1F1F1F"/>
<circle cx="7.54688" cy="12.0469" r="1.125" fill="#1F1F1F"/>
<circle cx="12.0469" cy="12.0469" r="1.125" fill="#1F1F1F"/>
<circle cx="16.5469" cy="12.0469" r="1.125" fill="#1F1F1F"/>
</svg>
